<svg width="550" height="99" viewBox="0 0 550 99" fill="none" xmlns="http://www.w3.org/2000/svg">
<g clip-path="url(#clip0_108_853)">
<g clip-path="url(#clip1_108_853)">
<mask id="mask0_108_853" style="mask-type:luminance" maskUnits="userSpaceOnUse" x="1" y="0" width="513" height="93">
<g clip-path="url(#clip2_108_853)">
<g clip-path="url(#clip3_108_853)">
<path d="M399.559 6.14313C399.559 3.0456 397.876 0.534546 395.801 0.534546C393.725 0.534546 392.042 3.0456 392.042 6.14313V86.6249C392.042 89.7224 393.725 92.2335 395.801 92.2335C397.876 92.2335 399.559 89.7224 399.559 86.6249V6.14313Z" fill="white"/>
<g clip-path="url(#clip4_108_853)">
<g clip-path="url(#clip5_108_853)">
<g clip-path="url(#clip6_108_853)">
<g clip-path="url(#clip7_108_853)">
<path d="M24.5036 45.6431C23.7652 45.6431 23.1381 45.4378 22.6224 45.0272C22.0833 44.6167 21.4387 44.0329 20.6886 43.2759C19.9502 42.5317 19.118 41.608 18.1921 40.5046C17.8522 40.0683 17.6823 39.677 17.6823 39.3306C17.6823 38.997 17.8522 38.6057 18.1921 38.1566C19.9736 35.9626 21.591 34.3524 23.0444 33.326C23.396 33.0694 23.8824 32.9411 24.5036 32.9411C26.4492 32.9411 28.131 32.1456 29.5492 30.5547C30.9674 28.9509 31.6472 26.3656 31.5886 22.7987C31.5651 18.9496 30.6978 16.2553 28.9866 14.7156C27.2872 13.176 24.9665 12.4062 22.0247 12.4062H19.9678C18.0691 12.4062 16.7798 12.8488 16.1 13.7341C15.4085 14.6066 15.0628 16.1077 15.0628 18.2376V65.6584C15.0628 66.595 14.887 67.2429 14.5353 67.6022C14.172 67.9614 13.5626 68.141 12.707 68.141H3.56503C2.70944 68.141 2.09998 67.9614 1.73665 67.6022C1.38503 67.2429 1.20923 66.595 1.20923 65.6584V13.3492C1.20923 10.2186 1.47294 7.73596 2.00036 5.90123C2.52778 4.07933 3.55917 2.76422 5.09455 1.95591C6.6182 1.16043 8.8568 0.762695 11.8104 0.762695H22.0247C30.229 0.762695 36.306 2.52686 40.2558 6.0552C44.2056 9.5707 46.1805 14.9658 46.1805 22.2406C46.1805 27.6935 45.1432 32.1392 43.0687 35.5777C40.9942 39.0291 38.3044 41.5695 34.9992 43.1989C31.694 44.8284 28.1955 45.6431 24.5036 45.6431ZM76.1027 69.315C71.2622 69.315 67.0546 68.4618 63.4798 66.7554C59.9051 65.0489 57.1274 62.3931 55.1466 58.7877C53.1776 55.1824 52.1931 50.5314 52.1931 44.8348C52.1931 36.2898 54.1973 29.8233 58.2057 25.4354C62.2023 21.0474 67.5234 18.8534 74.1689 18.8534C78.482 18.8534 82.1387 19.7002 85.1392 21.3938C88.1279 23.0874 90.4016 25.4225 91.9605 28.3992C93.5193 31.3758 94.2987 34.7694 94.2987 38.58C94.2987 42.3136 93.4255 44.9182 91.6792 46.3937C89.9328 47.8563 87.3836 48.5877 84.0316 48.5877H65.6247C65.8474 51.8209 66.9256 54.2843 68.8595 55.9779C70.7934 57.6715 73.4188 58.5183 76.7356 58.5183C79.3727 58.5183 81.4824 58.0821 83.0647 57.2096C84.6586 56.35 85.7721 55.67 86.405 55.1696C86.9441 54.7334 87.5594 54.5281 88.2509 54.5537C88.7901 54.5537 89.5695 54.6756 90.5892 54.9194C91.5971 55.1504 92.6051 55.5802 93.613 56.2089C94.328 56.6194 94.6855 57.184 94.6855 57.9025C94.6855 58.313 94.6151 58.8904 94.4745 59.6345C94.3807 60.0708 94.2342 60.7059 94.035 61.5398C93.8357 62.3738 93.5779 63.15 93.2614 63.8685C93.0973 64.215 92.8278 64.5421 92.4527 64.8501C91.8784 65.2863 90.9525 65.8637 89.675 66.5822C88.4092 67.3135 86.6746 67.9486 84.4711 68.4875C82.2677 69.0392 79.4782 69.315 76.1027 69.315ZM65.5368 38.9649H79.531C80.9843 38.9649 81.711 38.2272 81.711 36.7517C81.711 34.5321 81.078 32.6588 79.8122 31.132C78.5347 29.618 76.6243 28.8611 74.081 28.8611C71.3032 28.8611 69.2639 29.8297 67.9629 31.7671C66.6619 33.7173 65.8532 36.1166 65.5368 38.9649ZM125.276 69.315C120.447 69.315 116.239 68.4618 112.653 66.7554C109.078 65.0489 106.306 62.3931 104.337 58.7877C102.356 55.1824 101.366 50.5314 101.366 44.8348C101.366 36.2898 103.37 29.8233 107.379 25.4354C111.387 21.0474 116.708 18.8534 123.342 18.8534C127.667 18.8534 131.324 19.7002 134.312 21.3938C137.301 23.0874 139.575 25.4225 141.133 28.3992C142.692 31.3758 143.472 34.7694 143.472 38.58C143.472 42.3136 142.599 44.9182 140.852 46.3937C139.118 47.8563 136.574 48.5877 133.222 48.5877H114.815C115.038 51.8209 116.116 54.2843 118.05 55.9779C119.984 57.6715 122.609 58.5183 125.926 58.5183C128.552 58.5183 130.661 58.0821 132.255 57.2096C133.838 56.35 134.945 55.67 135.578 55.1696C136.129 54.7334 136.744 54.5281 137.424 54.5537C137.975 54.5537 138.754 54.6756 139.762 54.9194C140.782 55.1504 141.79 55.5802 142.786 56.2089C143.501 56.6194 143.858 57.184 143.858 57.9025C143.858 58.313 143.788 58.8904 143.648 59.6345C143.565 60.0708 143.425 60.7059 143.226 61.5398C143.026 62.3738 142.768 63.15 142.452 63.8685C142.276 64.215 142.001 64.5421 141.626 64.8501C141.063 65.2863 140.143 65.8637 138.866 66.5822C137.588 67.3135 135.848 67.9486 133.644 68.4875C131.441 69.0392 128.651 69.315 125.276 69.315ZM114.727 38.9649H128.722C130.175 38.9649 130.902 38.2272 130.902 36.7517C130.902 34.5321 130.263 32.6588 128.985 31.132C127.719 29.618 125.809 28.8611 123.254 28.8611C120.488 28.8611 118.454 29.8297 117.154 31.7671C115.853 33.7173 115.044 36.1166 114.727 38.9649ZM166.485 25.4739V28.9573H166.643C168.8 22.4395 172.667 19.1806 178.246 19.1806C178.961 19.1806 179.547 19.2191 180.004 19.2961C180.461 19.3731 180.772 19.4436 180.936 19.5078C181.37 19.6617 181.587 20.021 181.587 20.5855V31.9211C181.587 32.8834 181.071 33.1464 180.039 32.7102C179.7 32.5562 179.207 32.3958 178.563 32.229C177.918 32.0494 177.021 31.9596 175.873 31.9596C172.931 31.9596 170.628 33.14 168.964 35.5007C167.311 37.8744 166.485 41.0948 166.485 45.162V65.6584C166.485 66.595 166.303 67.2429 165.94 67.6022C165.588 67.9614 164.979 68.141 164.111 68.141H155.286C154.419 68.141 153.809 67.9614 153.458 67.6022C153.094 67.2429 152.913 66.595 152.913 65.6584V26.2822C152.913 25.5252 153.059 24.9414 153.352 24.5308C153.95 23.6584 154.671 22.7667 155.514 21.8557C156.358 20.9448 157.396 19.9761 158.626 18.9496C158.849 18.7572 159.077 18.6289 159.312 18.5647C159.546 18.5006 159.746 18.4685 159.91 18.4685C160.308 18.4685 160.712 18.6289 161.123 18.9496C163.49 20.9897 165.149 22.7282 166.098 24.1652C166.356 24.5372 166.485 24.9735 166.485 25.4739ZM212.353 45.6431C211.614 45.6431 210.987 45.4378 210.472 45.0272C209.932 44.6167 209.288 44.0329 208.538 43.2759C207.799 42.5317 206.967 41.608 206.041 40.5046C205.701 40.0683 205.531 39.677 205.531 39.3306C205.531 38.997 205.701 38.6057 206.041 38.1566C207.823 35.9626 209.44 34.3524 210.893 33.326C211.245 33.0694 211.731 32.9411 212.353 32.9411C214.298 32.9411 215.98 32.1456 217.398 30.5547C218.816 28.9509 219.496 26.3656 219.438 22.7987C219.414 18.9496 218.547 16.2553 216.836 14.7156C215.136 13.176 212.816 12.4062 209.874 12.4062H207.817C205.918 12.4062 204.629 12.8488 203.949 13.7341C203.258 14.6066 202.912 16.1077 202.912 18.2376V65.6584C202.912 66.595 202.736 67.2429 202.384 67.6022C202.021 67.9614 201.412 68.141 200.556 68.141H191.414C190.559 68.141 189.949 67.9614 189.586 67.6022C189.234 67.2429 189.058 66.595 189.058 65.6584V13.3492C189.058 10.2186 189.322 7.73596 189.849 5.90123C190.377 4.07933 191.408 2.76422 192.944 1.95591C194.467 1.16043 196.706 0.762695 199.659 0.762695H209.874C218.078 0.762695 224.155 2.52686 228.105 6.0552C232.055 9.5707 234.03 14.9658 234.03 22.2406C234.03 27.6935 232.992 32.1392 230.918 35.5777C228.843 39.0291 226.153 41.5695 222.848 43.1989C219.543 44.8284 216.045 45.6431 212.353 45.6431ZM255.97 25.4739V28.9573H256.128C258.273 22.4395 262.141 19.1806 267.732 19.1806C268.447 19.1806 269.033 19.2191 269.49 19.2961C269.947 19.3731 270.257 19.4436 270.421 19.5078C270.855 19.6617 271.072 20.021 271.072 20.5855V31.9211C271.072 32.8834 270.556 33.1464 269.525 32.7102C269.185 32.5562 268.693 32.3958 268.048 32.229C267.403 32.0494 266.507 31.9596 265.358 31.9596C262.416 31.9596 260.113 33.14 258.449 35.5007C256.796 37.8744 255.97 41.0948 255.97 45.162V65.6584C255.97 66.595 255.789 67.2429 255.425 67.6022C255.074 67.9614 254.464 68.141 253.597 68.141H244.754C243.898 68.141 243.295 67.9614 242.943 67.6022C242.58 67.2429 242.398 66.595 242.398 65.6584V26.2822C242.398 25.5252 242.539 24.9414 242.82 24.5308C243.429 23.6584 244.156 22.7667 245 21.8557C245.844 20.9448 246.881 19.9761 248.112 18.9496C248.334 18.7572 248.563 18.6289 248.797 18.5647C249.02 18.5006 249.219 18.4685 249.395 18.4685C249.794 18.4685 250.192 18.6289 250.591 18.9496C252.97 20.9897 254.634 22.7282 255.583 24.1652C255.841 24.5372 255.97 24.9735 255.97 25.4739ZM299.008 69.315C294.167 69.315 289.959 68.4618 286.385 66.7554C282.81 65.0489 280.038 62.3931 278.069 58.7877C276.088 55.1824 275.098 50.5314 275.098 44.8348C275.098 36.2898 277.102 29.8233 281.111 25.4354C285.119 21.0474 290.44 18.8534 297.074 18.8534C301.399 18.8534 305.055 19.7002 308.044 21.3938C311.033 23.0874 313.307 25.4225 314.865 28.3992C316.424 31.3758 317.204 34.7694 317.204 38.58C317.204 42.3136 316.33 44.9182 314.584 46.3937C312.838 47.8563 310.294 48.5877 306.954 48.5877H288.53C288.764 51.8209 289.848 54.2843 291.782 55.9779C293.704 57.6715 296.329 58.5183 299.658 58.5183C302.283 58.5183 304.393 58.0821 305.987 57.2096C307.569 56.35 308.677 55.67 309.31 55.1696C309.849 54.7334 310.464 54.5281 311.156 54.5537C311.695 54.5537 312.474 54.6756 313.494 54.9194C314.514 55.1504 315.522 55.5802 316.518 56.2089C317.233 56.6194 317.59 57.184 317.59 57.9025C317.59 58.313 317.52 58.8904 317.379 59.6345C317.297 60.0708 317.157 60.7059 316.957 61.5398C316.746 62.3738 316.489 63.15 316.184 63.8685C316.008 64.215 315.733 64.5421 315.358 64.8501C314.783 65.2863 313.863 65.8637 312.597 66.5822C311.32 67.3135 309.579 67.9486 307.376 68.4875C305.173 69.0392 302.383 69.315 299.008 69.315ZM288.442 38.9649H302.436C303.901 38.9649 304.633 38.2272 304.633 36.7517C304.633 34.5321 303.995 32.6588 302.717 31.132C301.451 29.618 299.541 28.8611 296.986 28.8611C294.208 28.8611 292.169 29.8297 290.868 31.7671C289.567 33.7173 288.758 36.1166 288.442 38.9649ZM353.982 18.8534C358.166 18.8534 361.606 19.8798 364.302 21.9327C367.009 23.9855 369.031 26.8018 370.367 30.3815C371.692 33.9739 372.354 38.0861 372.354 42.7178C372.354 47.7344 371.575 52.2443 370.016 56.2473C368.457 60.2632 366.16 63.4451 363.124 65.7931C360.089 68.141 356.326 69.315 351.837 69.315C349.517 69.315 347.606 69.0263 346.106 68.449C344.606 67.8716 343.405 67.1788 342.502 66.3705C341.6 65.575 340.891 64.8501 340.375 64.1957H340.217V84.211C340.217 84.968 340.07 85.5453 339.777 85.9431C338.582 87.6752 336.824 89.542 334.503 91.5435C334.104 91.8514 333.747 92.0054 333.43 92.0054C333.091 92.0054 332.733 91.8514 332.358 91.5435C331.127 90.5043 330.09 89.5292 329.246 88.6182C328.402 87.7201 327.676 86.8284 327.066 85.9431C326.785 85.5453 326.644 84.968 326.644 84.211V26.2822C326.644 25.5252 326.785 24.9414 327.066 24.5308C327.676 23.6584 328.402 22.7667 329.246 21.8557C330.09 20.9448 331.127 19.9761 332.358 18.9496C332.733 18.6289 333.12 18.4685 333.518 18.4685C333.882 18.4685 334.268 18.6289 334.679 18.9496C335.874 19.9761 336.9 20.964 337.755 21.9134C338.623 22.8501 339.384 23.8188 340.041 24.8195H340.252C340.732 24.1652 341.477 23.3697 342.484 22.4331C343.481 21.4836 344.905 20.6497 346.757 19.9312C348.597 19.2127 351.005 18.8534 353.982 18.8534ZM348.708 57.3251C351.802 57.3251 354.199 56.1447 355.899 53.7839C357.598 51.4232 358.448 48.0039 358.448 43.5261C358.448 35.0709 355.271 30.8433 348.919 30.8433C346.235 30.8433 344.248 31.4464 342.959 32.6524C341.67 33.8585 340.756 35.1287 340.217 36.463V46.6631C340.217 49.7039 340.932 52.2443 342.361 54.2843C343.791 56.3115 345.907 57.3251 348.708 57.3251Z" fill="white"/>
</g>
</g>
</g>
</g>
<g clip-path="url(#clip8_108_853)">
<g clip-path="url(#clip9_108_853)">
<path d="M513.539 46.3902L486.68 29.4129V39.5806H481.665C478.864 39.5417 476.934 38.6428 474.484 36.6895C470.855 33.7905 467.045 28.2028 461.866 22.8057C456.754 17.4398 449.371 12.2645 439.45 12.3384H419.236V25.9576H439.454C447.384 26.0043 451.685 30.5686 457.476 37.3743C459.953 40.3044 462.552 43.5224 465.737 46.4135C460.774 50.9507 457.163 56.2038 453.352 60.0366C449.147 64.2429 445.525 66.745 439.447 66.8111H419.239V80.4303H439.557C452.894 80.4342 461.009 71.4105 466.639 64.6087C469.54 61.1261 472.103 58.0404 474.492 56.0948C476.93 54.1414 478.86 53.2465 481.661 53.2075H486.68V63.3791L513.539 46.3902Z" fill="black"/>
</g>
</g>
</g>
</g>
</mask>
<g mask="url(#mask0_108_853)">
<path d="M513.539 0.534546H1.19702V92.2335H513.539V0.534546Z" fill="url(#paint0_linear_108_853)"/>
</g>
<mask id="mask1_108_853" style="mask-type:luminance" maskUnits="userSpaceOnUse" x="1" y="0" width="513" height="93">
<g clip-path="url(#clip10_108_853)">
<g clip-path="url(#clip11_108_853)">
<g clip-path="url(#clip12_108_853)">
<g clip-path="url(#clip13_108_853)">
<path d="M513.539 46.3902L486.68 29.4129V39.5806H481.665C478.864 39.5417 476.934 38.6428 474.484 36.6895C470.855 33.7905 467.045 28.2028 461.866 22.8057C456.754 17.4398 449.371 12.2645 439.45 12.3384H419.236V25.9576H439.454C447.384 26.0043 451.685 30.5686 457.476 37.3743C459.953 40.3044 462.552 43.5224 465.737 46.4135C460.774 50.9507 457.163 56.2038 453.352 60.0366C449.147 64.2429 445.525 66.745 439.447 66.8111H419.239V80.4303H439.557C452.894 80.4342 461.009 71.4105 466.639 64.6087C469.54 61.1261 472.103 58.0404 474.492 56.0948C476.93 54.1414 478.86 53.2465 481.661 53.2075H486.68V63.3791L513.539 46.3902Z" fill="white"/>
</g>
</g>
</g>
</g>
</mask>
<g mask="url(#mask1_108_853)">
<path d="M513.539 0.534546H1.19702V92.2335H513.539V0.534546Z" fill="url(#paint1_linear_108_853)"/>
</g>
</g>
</g>
<defs>
<linearGradient id="paint0_linear_108_853" x1="1.19702" y1="53.5365" x2="509.105" y2="101.779" gradientUnits="userSpaceOnUse">
<stop stop-color="#6EE2F5"/>
<stop offset="1" stop-color="#6454F0"/>
</linearGradient>
<linearGradient id="paint1_linear_108_853" x1="1.19702" y1="53.5365" x2="509.105" y2="101.779" gradientUnits="userSpaceOnUse">
<stop stop-color="#6EE2F5"/>
<stop offset="1" stop-color="#6454F0"/>
</linearGradient>
<clipPath id="clip0_108_853">
<rect width="513.406" height="92.1718" fill="white" transform="translate(0.665039 0.298096)"/>
</clipPath>
<clipPath id="clip1_108_853">
<rect width="512.342" height="91.6989" fill="white" transform="translate(1.19702 0.534546)"/>
</clipPath>
<clipPath id="clip2_108_853">
<rect width="512.342" height="91.6989" fill="white" transform="translate(1.19702 0.534546)"/>
</clipPath>
<clipPath id="clip3_108_853">
<rect width="512.342" height="91.6989" fill="white" transform="translate(1.19702 0.534546)"/>
</clipPath>
<clipPath id="clip4_108_853">
<rect width="371.168" height="91.2427" fill="white" transform="translate(1.19702 0.762695)"/>
</clipPath>
<clipPath id="clip5_108_853">
<rect width="371.168" height="91.2427" fill="white" transform="translate(1.19702 0.762695)"/>
</clipPath>
<clipPath id="clip6_108_853">
<rect width="371.168" height="91.2427" fill="white" transform="translate(1.19702 0.762695)"/>
</clipPath>
<clipPath id="clip7_108_853">
<rect width="371.168" height="91.2427" fill="white" transform="translate(1.19702 0.762695)"/>
</clipPath>
<clipPath id="clip8_108_853">
<rect width="94.3029" height="68.0926" fill="white" transform="translate(419.236 12.3376)"/>
</clipPath>
<clipPath id="clip9_108_853">
<rect width="94.3029" height="68.0926" fill="white" transform="translate(419.236 12.3376)"/>
</clipPath>
<clipPath id="clip10_108_853">
<rect width="512.342" height="91.6989" fill="white" transform="translate(1.19702 0.534546)"/>
</clipPath>
<clipPath id="clip11_108_853">
<rect width="512.342" height="91.6989" fill="white" transform="translate(1.19702 0.534546)"/>
</clipPath>
<clipPath id="clip12_108_853">
<rect width="94.3029" height="68.0926" fill="white" transform="translate(419.236 12.3376)"/>
</clipPath>
<clipPath id="clip13_108_853">
<rect width="94.3029" height="68.0926" fill="white" transform="translate(419.236 12.3376)"/>
</clipPath>
</defs>
</svg>
